<svg width="100%" height="100%" viewBox="0 0 35 33" xmlns="http://www.w3.org/2000/svg">
	<path d="M25.0143 20.3457H23.4334L22.8731 19.8463C24.8342 17.7378 26.0149 15.0004 26.0149 12.0225C26.0149 5.38237 20.1915 0 13.0074 0C5.82333 0 0 5.38237 0 12.0225C0 18.6626 5.82333 24.045 13.0074 24.045C16.2293 24.045 19.191 22.9537 21.4723 21.1411L22.0126 21.659V23.1201L32.0183 32.3497L35 29.5938L25.0143 20.3457ZM13.0074 20.3457C8.02458 20.3457 4.00229 16.628 4.00229 12.0225C4.00229 7.41694 8.02458 3.69922 13.0074 3.69922C17.9903 3.69922 22.0126 7.41694 22.0126 12.0225C22.0126 16.628 17.9903 20.3457 13.0074 20.3457Z" />
</svg>
